<svg width="16" height="16" viewBox="0 0 16 16" fill="none" xmlns="http://www.w3.org/2000/svg">
<g id="ep:arrow-up">
<path id="Vector" d="M8.36196 10.62L13.672 5.04705C13.7606 4.95406 13.8101 4.83052 13.8101 4.70205C13.8101 4.57358 13.7606 4.45004 13.672 4.35705L13.666 4.35105C13.623 4.30581 13.5713 4.26979 13.5139 4.24518C13.4566 4.22056 13.3949 4.20787 13.3325 4.20787C13.2701 4.20787 13.2083 4.22056 13.151 4.24518C13.0937 4.26979 13.0419 4.30581 12.999 4.35105L7.99896 9.59905L3.00096 4.35105C2.95799 4.30581 2.90626 4.26979 2.84893 4.24518C2.7916 4.22056 2.72986 4.20787 2.66746 4.20787C2.60507 4.20787 2.54333 4.22056 2.486 4.24518C2.42866 4.26979 2.37694 4.30581 2.33396 4.35105L2.32796 4.35705C2.23932 4.45004 2.18987 4.57358 2.18987 4.70205C2.18987 4.83052 2.23932 4.95406 2.32796 5.04705L7.63796 10.62C7.68466 10.6691 7.74082 10.7081 7.80305 10.7347C7.86528 10.7614 7.93227 10.7751 7.99996 10.7751C8.06766 10.7751 8.13465 10.7614 8.19688 10.7347C8.2591 10.7081 8.31527 10.6691 8.36196 10.62Z" fill="black"/>
</g>
</svg>
