<svg width="24" height="24" viewBox="0 0 24 24" fill="none" xmlns="http://www.w3.org/2000/svg">
<g clip-path="url(#clip0_683_2050)">
<path d="M22 7.53491V16.9999C22 17.7651 21.7077 18.5014 21.1827 19.0582C20.6578 19.6149 19.9399 19.95 19.176 19.9949L19 19.9999H5C4.23479 20 3.49849 19.7076 2.94174 19.1826C2.38499 18.6577 2.04989 17.9398 2.005 17.1759L2 16.9999V7.53491L11.445 13.8319L11.561 13.8979C11.6977 13.9647 11.8478 13.9994 12 13.9994C12.1522 13.9994 12.3023 13.9647 12.439 13.8979L12.555 13.8319L22 7.53491Z" fill="url(#paint0_linear_683_2050)"/>
<path d="M18.9999 4C20.0799 4 21.0269 4.57 21.5549 5.427L11.9999 11.797L2.44495 5.427C2.69568 5.01977 3.04016 4.6784 3.44965 4.43138C3.85915 4.18436 4.32178 4.03886 4.79895 4.007L4.99995 4H18.9999Z" fill="url(#paint1_linear_683_2050)"/>
</g>
<defs>
<linearGradient id="paint0_linear_683_2050" x1="12" y1="7.53491" x2="12" y2="19.9999" gradientUnits="userSpaceOnUse">
<stop stop-color="#F4D88F"/>
<stop offset="1" stop-color="#A08643"/>
</linearGradient>
<linearGradient id="paint1_linear_683_2050" x1="11.9999" y1="4" x2="11.9999" y2="11.797" gradientUnits="userSpaceOnUse">
<stop stop-color="#F4D88F"/>
<stop offset="1" stop-color="#A08643"/>
</linearGradient>
<clipPath id="clip0_683_2050">
<rect width="24" height="24" fill="white"/>
</clipPath>
</defs>
</svg>
