<svg width="393" height="246" viewBox="0 0 393 246" fill="none" xmlns="http://www.w3.org/2000/svg">
<g filter="url(#filter0_d_803_2363)">
<mask id="mask0_803_2363" style="mask-type:alpha" maskUnits="userSpaceOnUse" x="25" y="24" width="343" height="196">
<rect x="25" y="24" width="343" height="195.937" rx="8" fill="#222222"/>
</mask>
<g mask="url(#mask0_803_2363)">
<g filter="url(#filter1_d_803_2363)">
<rect x="25" y="24" width="344" height="195.937" rx="8" fill="#222222"/>
</g>
<path d="M236.5 148.728C215.983 145.979 192.327 148.028 173.816 150.76C153.196 153.804 131.814 151.404 113.464 141.517C89.2659 128.479 60.7166 126.157 34.7297 135.115L25.5 138.296L17 226.287H305L303.608 216.691C302.872 211.616 301.558 206.643 299.221 202.079C291.599 187.198 270.692 153.31 236.5 148.728Z" fill="url(#paint0_linear_803_2363)" fill-opacity="0.05"/>
<ellipse cx="335.5" cy="50.7599" rx="120.5" ry="109.307" fill="url(#paint1_linear_803_2363)" fill-opacity="0.05"/>
</g>
<g clip-path="url(#clip0_803_2363)">
<path d="M317.818 190.796V189.295C317.818 188.72 317.433 188.345 316.775 188.345C316.446 188.345 316.089 188.445 315.842 188.77C315.65 188.495 315.375 188.345 314.964 188.345C314.689 188.345 314.415 188.42 314.195 188.695V188.395H313.619V190.796H314.195V189.47C314.195 189.045 314.442 188.845 314.827 188.845C315.211 188.845 315.403 189.07 315.403 189.47V190.796H315.979V189.47C315.979 189.045 316.253 188.845 316.61 188.845C316.994 188.845 317.186 189.07 317.186 189.47V190.796H317.818ZM326.352 188.395H325.419V187.669H324.842V188.395H324.321V188.87H324.842V189.971C324.842 190.521 325.089 190.846 325.748 190.846C325.995 190.846 326.269 190.771 326.461 190.671L326.297 190.221C326.132 190.321 325.94 190.346 325.803 190.346C325.528 190.346 325.419 190.196 325.419 189.946V188.87H326.352V188.395ZM331.236 188.345C330.907 188.345 330.687 188.495 330.55 188.695V188.395H329.974V190.796H330.55V189.445C330.55 189.045 330.742 188.82 331.099 188.82C331.209 188.82 331.346 188.845 331.456 188.87L331.62 188.37C331.51 188.345 331.346 188.345 331.236 188.345ZM323.854 188.595C323.58 188.42 323.196 188.345 322.784 188.345C322.126 188.345 321.687 188.645 321.687 189.12C321.687 189.52 322.016 189.746 322.592 189.821L322.867 189.846C323.168 189.896 323.333 189.971 323.333 190.096C323.333 190.271 323.114 190.396 322.729 190.396C322.345 190.396 322.043 190.271 321.851 190.146L321.577 190.546C321.879 190.746 322.29 190.846 322.702 190.846C323.47 190.846 323.909 190.521 323.909 190.071C323.909 189.646 323.553 189.42 323.004 189.345L322.729 189.32C322.482 189.295 322.29 189.245 322.29 189.095C322.29 188.92 322.482 188.82 322.784 188.82C323.114 188.82 323.443 188.945 323.608 189.02L323.854 188.595ZM339.166 188.345C338.837 188.345 338.618 188.495 338.48 188.695V188.395H337.904V190.796H338.48V189.445C338.48 189.045 338.672 188.82 339.029 188.82C339.139 188.82 339.276 188.845 339.386 188.87L339.551 188.37C339.441 188.345 339.276 188.345 339.166 188.345ZM331.812 189.596C331.812 190.321 332.361 190.846 333.212 190.846C333.596 190.846 333.87 190.771 334.145 190.571L333.87 190.146C333.651 190.296 333.431 190.371 333.184 190.371C332.718 190.371 332.389 190.071 332.389 189.596C332.389 189.145 332.718 188.845 333.184 188.82C333.431 188.82 333.651 188.895 333.87 189.045L334.145 188.62C333.87 188.42 333.596 188.345 333.212 188.345C332.361 188.345 331.812 188.87 331.812 189.596ZM337.136 189.596V188.395H336.559V188.695C336.367 188.47 336.093 188.345 335.736 188.345C334.995 188.345 334.419 188.87 334.419 189.596C334.419 190.321 334.995 190.846 335.736 190.846C336.12 190.846 336.395 190.721 336.559 190.496V190.796H337.136V189.596ZM335.023 189.596C335.023 189.17 335.325 188.82 335.819 188.82C336.285 188.82 336.614 189.145 336.614 189.596C336.614 190.021 336.285 190.371 335.819 190.371C335.325 190.346 335.023 190.021 335.023 189.596ZM328.135 188.345C327.367 188.345 326.818 188.845 326.818 189.596C326.818 190.346 327.367 190.846 328.163 190.846C328.547 190.846 328.931 190.746 329.233 190.521L328.958 190.146C328.739 190.296 328.465 190.396 328.19 190.396C327.833 190.396 327.477 190.246 327.394 189.821H329.343V189.621C329.37 188.845 328.876 188.345 328.135 188.345ZM328.135 188.795C328.492 188.795 328.739 188.995 328.794 189.37H327.422C327.477 189.045 327.724 188.795 328.135 188.795ZM342.432 189.596V187.444H341.856V188.695C341.663 188.47 341.389 188.345 341.032 188.345C340.291 188.345 339.715 188.87 339.715 189.596C339.715 190.321 340.291 190.846 341.032 190.846C341.416 190.846 341.691 190.721 341.856 190.496V190.796H342.432V189.596ZM340.319 189.596C340.319 189.17 340.621 188.82 341.115 188.82C341.581 188.82 341.91 189.145 341.91 189.596C341.91 190.021 341.581 190.371 341.115 190.371C340.621 190.346 340.319 190.021 340.319 189.596ZM321.056 189.596V188.395H320.479V188.695C320.287 188.47 320.013 188.345 319.656 188.345C318.915 188.345 318.339 188.87 318.339 189.596C318.339 190.321 318.915 190.846 319.656 190.846C320.04 190.846 320.315 190.721 320.479 190.496V190.796H321.056V189.596ZM318.915 189.596C318.915 189.17 319.217 188.82 319.711 188.82C320.177 188.82 320.507 189.145 320.507 189.596C320.507 190.021 320.177 190.371 319.711 190.371C319.217 190.346 318.915 190.021 318.915 189.596Z" fill="white"/>
<path d="M332.306 170.158H323.662V184.317H332.306V170.158Z" fill="#FF5F00"/>
<path d="M324.211 177.237C324.211 174.36 325.693 171.809 327.97 170.157C326.297 168.957 324.184 168.231 321.879 168.231C316.418 168.231 312 172.259 312 177.237C312 182.216 316.418 186.243 321.879 186.243C324.184 186.243 326.297 185.518 327.97 184.317C325.693 182.691 324.211 180.114 324.211 177.237Z" fill="#EB001B"/>
<path d="M343.968 177.237C343.968 182.216 339.55 186.243 334.09 186.243C331.785 186.243 329.672 185.518 327.998 184.317C330.303 182.666 331.757 180.114 331.757 177.237C331.757 174.36 330.275 171.809 327.998 170.157C329.672 168.957 331.785 168.231 334.09 168.231C339.55 168.231 343.968 172.284 343.968 177.237Z" fill="#F79E1B"/>
</g>
<mask id="mask1_803_2363" style="mask-type:alpha" maskUnits="userSpaceOnUse" x="49" y="54" width="32" height="23">
<rect x="49" y="54.8419" width="32" height="21.7708" rx="8" fill="#FFBA49"/>
</mask>
<g mask="url(#mask1_803_2363)">
<rect x="49" y="54.8419" width="32" height="21.7708" rx="8" fill="#FFBA49"/>
<rect x="43" y="56.6561" width="20" height="6.3498" rx="2.5" stroke="#D29634" stroke-width="0.3"/>
<rect x="43" y="63.006" width="20" height="6.3498" rx="2.5" stroke="#D29634" stroke-width="0.3"/>
<rect x="43" y="69.3557" width="20" height="6.3498" rx="2.5" stroke="#D29634" stroke-width="0.3"/>
<rect x="68" y="56.6561" width="20" height="6.3498" rx="2.5" stroke="#D29634" stroke-width="0.3"/>
<rect x="68" y="63.006" width="20" height="6.3498" rx="2.5" stroke="#D29634" stroke-width="0.3"/>
<rect x="68" y="69.3557" width="20" height="6.3498" rx="2.5" stroke="#D29634" stroke-width="0.3"/>
</g>
<path d="M62.1922 108.483C62.0482 108.571 61.9002 108.647 61.7482 108.711C61.6042 108.767 61.4562 108.811 61.3042 108.843C61.6002 108.891 61.8962 109.007 62.1922 109.191L64.0282 110.283L63.2602 111.591L61.4242 110.499C61.2802 110.411 61.1442 110.323 61.0162 110.235C60.8882 110.139 60.7762 110.035 60.6802 109.923C60.7762 110.203 60.8242 110.507 60.8242 110.835V112.995H59.2522V110.859C59.2522 110.699 59.2602 110.543 59.2762 110.391C59.3002 110.231 59.3362 110.083 59.3842 109.947C59.2002 110.155 58.9602 110.339 58.6642 110.499L56.8402 111.567L56.0602 110.259L57.8962 109.191C58.0482 109.103 58.1962 109.031 58.3402 108.975C58.4922 108.911 58.6442 108.867 58.7962 108.843C58.6442 108.819 58.4922 108.775 58.3402 108.711C58.1882 108.647 58.0402 108.571 57.8962 108.483L56.0602 107.391L56.8282 106.095L58.6642 107.187C58.9602 107.347 59.2042 107.535 59.3962 107.751C59.3002 107.479 59.2522 107.179 59.2522 106.851V104.679H60.8242V106.827C60.8242 106.987 60.8122 107.147 60.7882 107.307C60.7722 107.459 60.7402 107.603 60.6922 107.739C60.7882 107.627 60.8962 107.527 61.0162 107.439C61.1442 107.351 61.2802 107.267 61.4242 107.187L63.2482 106.119L64.0282 107.415L62.1922 108.483ZM77.2668 108.483C77.1228 108.571 76.9748 108.647 76.8228 108.711C76.6788 108.767 76.5308 108.811 76.3788 108.843C76.6748 108.891 76.9708 109.007 77.2668 109.191L79.1028 110.283L78.3348 111.591L76.4988 110.499C76.3548 110.411 76.2188 110.323 76.0908 110.235C75.9628 110.139 75.8508 110.035 75.7548 109.923C75.8508 110.203 75.8988 110.507 75.8988 110.835V112.995H74.3268V110.859C74.3268 110.699 74.3348 110.543 74.3508 110.391C74.3748 110.231 74.4108 110.083 74.4588 109.947C74.2748 110.155 74.0348 110.339 73.7388 110.499L71.9148 111.567L71.1348 110.259L72.9708 109.191C73.1228 109.103 73.2708 109.031 73.4148 108.975C73.5668 108.911 73.7188 108.867 73.8708 108.843C73.7188 108.819 73.5668 108.775 73.4148 108.711C73.2628 108.647 73.1148 108.571 72.9708 108.483L71.1348 107.391L71.9028 106.095L73.7388 107.187C74.0348 107.347 74.2788 107.535 74.4708 107.751C74.3748 107.479 74.3268 107.179 74.3268 106.851V104.679H75.8988V106.827C75.8988 106.987 75.8868 107.147 75.8628 107.307C75.8468 107.459 75.8148 107.603 75.7668 107.739C75.8628 107.627 75.9708 107.527 76.0908 107.439C76.2188 107.351 76.3548 107.267 76.4988 107.187L78.3228 106.119L79.1028 107.415L77.2668 108.483ZM92.3415 108.483C92.1975 108.571 92.0495 108.647 91.8975 108.711C91.7535 108.767 91.6055 108.811 91.4535 108.843C91.7495 108.891 92.0455 109.007 92.3415 109.191L94.1775 110.283L93.4095 111.591L91.5735 110.499C91.4295 110.411 91.2935 110.323 91.1655 110.235C91.0375 110.139 90.9255 110.035 90.8295 109.923C90.9255 110.203 90.9735 110.507 90.9735 110.835V112.995H89.4015V110.859C89.4015 110.699 89.4095 110.543 89.4255 110.391C89.4495 110.231 89.4855 110.083 89.5335 109.947C89.3495 110.155 89.1095 110.339 88.8135 110.499L86.9895 111.567L86.2095 110.259L88.0455 109.191C88.1975 109.103 88.3455 109.031 88.4895 108.975C88.6415 108.911 88.7935 108.867 88.9455 108.843C88.7935 108.819 88.6415 108.775 88.4895 108.711C88.3375 108.647 88.1895 108.571 88.0455 108.483L86.2095 107.391L86.9775 106.095L88.8135 107.187C89.1095 107.347 89.3535 107.535 89.5455 107.751C89.4495 107.479 89.4015 107.179 89.4015 106.851V104.679H90.9735V106.827C90.9735 106.987 90.9615 107.147 90.9375 107.307C90.9215 107.459 90.8895 107.603 90.8415 107.739C90.9375 107.627 91.0455 107.527 91.1655 107.439C91.2935 107.351 91.4295 107.267 91.5735 107.187L93.3975 106.119L94.1775 107.415L92.3415 108.483ZM107.416 108.483C107.272 108.571 107.124 108.647 106.972 108.711C106.828 108.767 106.68 108.811 106.528 108.843C106.824 108.891 107.12 109.007 107.416 109.191L109.252 110.283L108.484 111.591L106.648 110.499C106.504 110.411 106.368 110.323 106.24 110.235C106.112 110.139 106 110.035 105.904 109.923C106 110.203 106.048 110.507 106.048 110.835V112.995H104.476V110.859C104.476 110.699 104.484 110.543 104.5 110.391C104.524 110.231 104.56 110.083 104.608 109.947C104.424 110.155 104.184 110.339 103.888 110.499L102.064 111.567L101.284 110.259L103.12 109.191C103.272 109.103 103.42 109.031 103.564 108.975C103.716 108.911 103.868 108.867 104.02 108.843C103.868 108.819 103.716 108.775 103.564 108.711C103.412 108.647 103.264 108.571 103.12 108.483L101.284 107.391L102.052 106.095L103.888 107.187C104.184 107.347 104.428 107.535 104.62 107.751C104.524 107.479 104.476 107.179 104.476 106.851V104.679H106.048V106.827C106.048 106.987 106.036 107.147 106.012 107.307C105.996 107.459 105.964 107.603 105.916 107.739C106.012 107.627 106.12 107.527 106.24 107.439C106.368 107.351 106.504 107.267 106.648 107.187L108.472 106.119L109.252 107.415L107.416 108.483ZM127.778 108.483C127.634 108.571 127.486 108.647 127.334 108.711C127.19 108.767 127.042 108.811 126.89 108.843C127.186 108.891 127.482 109.007 127.778 109.191L129.614 110.283L128.846 111.591L127.01 110.499C126.866 110.411 126.73 110.323 126.602 110.235C126.474 110.139 126.362 110.035 126.266 109.923C126.362 110.203 126.41 110.507 126.41 110.835V112.995H124.838V110.859C124.838 110.699 124.846 110.543 124.862 110.391C124.886 110.231 124.922 110.083 124.97 109.947C124.786 110.155 124.546 110.339 124.25 110.499L122.426 111.567L121.646 110.259L123.482 109.191C123.634 109.103 123.782 109.031 123.926 108.975C124.078 108.911 124.23 108.867 124.382 108.843C124.23 108.819 124.078 108.775 123.926 108.711C123.774 108.647 123.626 108.571 123.482 108.483L121.646 107.391L122.414 106.095L124.25 107.187C124.546 107.347 124.79 107.535 124.982 107.751C124.886 107.479 124.838 107.179 124.838 106.851V104.679H126.41V106.827C126.41 106.987 126.398 107.147 126.374 107.307C126.358 107.459 126.326 107.603 126.278 107.739C126.374 107.627 126.482 107.527 126.602 107.439C126.73 107.351 126.866 107.267 127.01 107.187L128.834 106.119L129.614 107.415L127.778 108.483ZM142.853 108.483C142.709 108.571 142.561 108.647 142.409 108.711C142.265 108.767 142.117 108.811 141.965 108.843C142.261 108.891 142.557 109.007 142.853 109.191L144.689 110.283L143.921 111.591L142.085 110.499C141.941 110.411 141.805 110.323 141.677 110.235C141.549 110.139 141.437 110.035 141.341 109.923C141.437 110.203 141.485 110.507 141.485 110.835V112.995H139.913V110.859C139.913 110.699 139.921 110.543 139.937 110.391C139.961 110.231 139.997 110.083 140.045 109.947C139.861 110.155 139.621 110.339 139.325 110.499L137.501 111.567L136.721 110.259L138.557 109.191C138.709 109.103 138.857 109.031 139.001 108.975C139.153 108.911 139.305 108.867 139.457 108.843C139.305 108.819 139.153 108.775 139.001 108.711C138.849 108.647 138.701 108.571 138.557 108.483L136.721 107.391L137.489 106.095L139.325 107.187C139.621 107.347 139.865 107.535 140.057 107.751C139.961 107.479 139.913 107.179 139.913 106.851V104.679H141.485V106.827C141.485 106.987 141.473 107.147 141.449 107.307C141.433 107.459 141.401 107.603 141.353 107.739C141.449 107.627 141.557 107.527 141.677 107.439C141.805 107.351 141.941 107.267 142.085 107.187L143.909 106.119L144.689 107.415L142.853 108.483ZM157.927 108.483C157.783 108.571 157.635 108.647 157.483 108.711C157.339 108.767 157.191 108.811 157.039 108.843C157.335 108.891 157.631 109.007 157.927 109.191L159.763 110.283L158.995 111.591L157.159 110.499C157.015 110.411 156.879 110.323 156.751 110.235C156.623 110.139 156.511 110.035 156.415 109.923C156.511 110.203 156.559 110.507 156.559 110.835V112.995H154.987V110.859C154.987 110.699 154.995 110.543 155.011 110.391C155.035 110.231 155.071 110.083 155.119 109.947C154.935 110.155 154.695 110.339 154.399 110.499L152.575 111.567L151.795 110.259L153.631 109.191C153.783 109.103 153.931 109.031 154.075 108.975C154.227 108.911 154.379 108.867 154.531 108.843C154.379 108.819 154.227 108.775 154.075 108.711C153.923 108.647 153.775 108.571 153.631 108.483L151.795 107.391L152.563 106.095L154.399 107.187C154.695 107.347 154.939 107.535 155.131 107.751C155.035 107.479 154.987 107.179 154.987 106.851V104.679H156.559V106.827C156.559 106.987 156.547 107.147 156.523 107.307C156.507 107.459 156.475 107.603 156.427 107.739C156.523 107.627 156.631 107.527 156.751 107.439C156.879 107.351 157.015 107.267 157.159 107.187L158.983 106.119L159.763 107.415L157.927 108.483ZM173.002 108.483C172.858 108.571 172.71 108.647 172.558 108.711C172.414 108.767 172.266 108.811 172.114 108.843C172.41 108.891 172.706 109.007 173.002 109.191L174.838 110.283L174.07 111.591L172.234 110.499C172.09 110.411 171.954 110.323 171.826 110.235C171.698 110.139 171.586 110.035 171.49 109.923C171.586 110.203 171.634 110.507 171.634 110.835V112.995H170.062V110.859C170.062 110.699 170.07 110.543 170.086 110.391C170.11 110.231 170.146 110.083 170.194 109.947C170.01 110.155 169.77 110.339 169.474 110.499L167.65 111.567L166.87 110.259L168.706 109.191C168.858 109.103 169.006 109.031 169.15 108.975C169.302 108.911 169.454 108.867 169.606 108.843C169.454 108.819 169.302 108.775 169.15 108.711C168.998 108.647 168.85 108.571 168.706 108.483L166.87 107.391L167.638 106.095L169.474 107.187C169.77 107.347 170.014 107.535 170.206 107.751C170.11 107.479 170.062 107.179 170.062 106.851V104.679H171.634V106.827C171.634 106.987 171.622 107.147 171.598 107.307C171.582 107.459 171.55 107.603 171.502 107.739C171.598 107.627 171.706 107.527 171.826 107.439C171.954 107.351 172.09 107.267 172.234 107.187L174.058 106.119L174.838 107.415L173.002 108.483ZM193.364 108.483C193.22 108.571 193.072 108.647 192.92 108.711C192.776 108.767 192.628 108.811 192.476 108.843C192.772 108.891 193.068 109.007 193.364 109.191L195.2 110.283L194.432 111.591L192.596 110.499C192.452 110.411 192.316 110.323 192.188 110.235C192.06 110.139 191.948 110.035 191.852 109.923C191.948 110.203 191.996 110.507 191.996 110.835V112.995H190.424V110.859C190.424 110.699 190.432 110.543 190.448 110.391C190.472 110.231 190.508 110.083 190.556 109.947C190.372 110.155 190.132 110.339 189.836 110.499L188.012 111.567L187.232 110.259L189.068 109.191C189.22 109.103 189.368 109.031 189.512 108.975C189.664 108.911 189.816 108.867 189.968 108.843C189.816 108.819 189.664 108.775 189.512 108.711C189.36 108.647 189.212 108.571 189.068 108.483L187.232 107.391L188 106.095L189.836 107.187C190.132 107.347 190.376 107.535 190.568 107.751C190.472 107.479 190.424 107.179 190.424 106.851V104.679H191.996V106.827C191.996 106.987 191.984 107.147 191.96 107.307C191.944 107.459 191.912 107.603 191.864 107.739C191.96 107.627 192.068 107.527 192.188 107.439C192.316 107.351 192.452 107.267 192.596 107.187L194.42 106.119L195.2 107.415L193.364 108.483ZM208.438 108.483C208.294 108.571 208.146 108.647 207.994 108.711C207.85 108.767 207.702 108.811 207.55 108.843C207.846 108.891 208.142 109.007 208.438 109.191L210.274 110.283L209.506 111.591L207.67 110.499C207.526 110.411 207.39 110.323 207.262 110.235C207.134 110.139 207.022 110.035 206.926 109.923C207.022 110.203 207.07 110.507 207.07 110.835V112.995H205.498V110.859C205.498 110.699 205.506 110.543 205.522 110.391C205.546 110.231 205.582 110.083 205.63 109.947C205.446 110.155 205.206 110.339 204.91 110.499L203.086 111.567L202.306 110.259L204.142 109.191C204.294 109.103 204.442 109.031 204.586 108.975C204.738 108.911 204.89 108.867 205.042 108.843C204.89 108.819 204.738 108.775 204.586 108.711C204.434 108.647 204.286 108.571 204.142 108.483L202.306 107.391L203.074 106.095L204.91 107.187C205.206 107.347 205.45 107.535 205.642 107.751C205.546 107.479 205.498 107.179 205.498 106.851V104.679H207.07V106.827C207.07 106.987 207.058 107.147 207.034 107.307C207.018 107.459 206.986 107.603 206.938 107.739C207.034 107.627 207.142 107.527 207.262 107.439C207.39 107.351 207.526 107.267 207.67 107.187L209.494 106.119L210.274 107.415L208.438 108.483ZM223.513 108.483C223.369 108.571 223.221 108.647 223.069 108.711C222.925 108.767 222.777 108.811 222.625 108.843C222.921 108.891 223.217 109.007 223.513 109.191L225.349 110.283L224.581 111.591L222.745 110.499C222.601 110.411 222.465 110.323 222.337 110.235C222.209 110.139 222.097 110.035 222.001 109.923C222.097 110.203 222.145 110.507 222.145 110.835V112.995H220.573V110.859C220.573 110.699 220.581 110.543 220.597 110.391C220.621 110.231 220.657 110.083 220.705 109.947C220.521 110.155 220.281 110.339 219.985 110.499L218.161 111.567L217.381 110.259L219.217 109.191C219.369 109.103 219.517 109.031 219.661 108.975C219.813 108.911 219.965 108.867 220.117 108.843C219.965 108.819 219.813 108.775 219.661 108.711C219.509 108.647 219.361 108.571 219.217 108.483L217.381 107.391L218.149 106.095L219.985 107.187C220.281 107.347 220.525 107.535 220.717 107.751C220.621 107.479 220.573 107.179 220.573 106.851V104.679H222.145V106.827C222.145 106.987 222.133 107.147 222.109 107.307C222.093 107.459 222.061 107.603 222.013 107.739C222.109 107.627 222.217 107.527 222.337 107.439C222.465 107.351 222.601 107.267 222.745 107.187L224.569 106.119L225.349 107.415L223.513 108.483ZM238.588 108.483C238.444 108.571 238.296 108.647 238.144 108.711C238 108.767 237.852 108.811 237.7 108.843C237.996 108.891 238.292 109.007 238.588 109.191L240.424 110.283L239.656 111.591L237.82 110.499C237.676 110.411 237.54 110.323 237.412 110.235C237.284 110.139 237.172 110.035 237.076 109.923C237.172 110.203 237.22 110.507 237.22 110.835V112.995H235.648V110.859C235.648 110.699 235.656 110.543 235.672 110.391C235.696 110.231 235.732 110.083 235.78 109.947C235.596 110.155 235.356 110.339 235.06 110.499L233.236 111.567L232.456 110.259L234.292 109.191C234.444 109.103 234.592 109.031 234.736 108.975C234.888 108.911 235.04 108.867 235.192 108.843C235.04 108.819 234.888 108.775 234.736 108.711C234.584 108.647 234.436 108.571 234.292 108.483L232.456 107.391L233.224 106.095L235.06 107.187C235.356 107.347 235.6 107.535 235.792 107.751C235.696 107.479 235.648 107.179 235.648 106.851V104.679H237.22V106.827C237.22 106.987 237.208 107.147 237.184 107.307C237.168 107.459 237.136 107.603 237.088 107.739C237.184 107.627 237.292 107.527 237.412 107.439C237.54 107.351 237.676 107.267 237.82 107.187L239.644 106.119L240.424 107.415L238.588 108.483ZM254.152 110.379C254.264 109.595 254.48 108.903 254.8 108.303C255.12 107.695 255.524 107.187 256.012 106.779C256.508 106.371 257.072 106.063 257.704 105.855C258.344 105.639 259.032 105.531 259.768 105.531C260.496 105.531 261.168 105.635 261.784 105.843C262.4 106.051 262.928 106.347 263.368 106.731C263.816 107.115 264.164 107.579 264.412 108.123C264.66 108.667 264.784 109.271 264.784 109.935C264.784 110.479 264.712 110.967 264.568 111.399C264.432 111.823 264.232 112.195 263.968 112.515C263.712 112.835 263.4 113.107 263.032 113.331C262.664 113.555 262.252 113.739 261.796 113.883C262.916 114.171 263.756 114.667 264.316 115.371C264.884 116.067 265.168 116.939 265.168 117.987C265.168 118.779 265.016 119.491 264.712 120.123C264.416 120.755 264.008 121.295 263.488 121.743C262.968 122.183 262.36 122.523 261.664 122.763C260.976 122.995 260.236 123.111 259.444 123.111C258.532 123.111 257.752 122.999 257.104 122.775C256.456 122.543 255.908 122.227 255.46 121.827C255.012 121.427 254.644 120.955 254.356 120.411C254.068 119.859 253.824 119.263 253.624 118.623L254.548 118.239C254.788 118.135 255.02 118.107 255.244 118.155C255.476 118.203 255.644 118.335 255.748 118.551C255.852 118.775 255.98 119.043 256.132 119.355C256.292 119.667 256.508 119.967 256.78 120.255C257.052 120.543 257.396 120.787 257.812 120.987C258.236 121.187 258.772 121.287 259.42 121.287C260.02 121.287 260.544 121.191 260.992 120.999C261.448 120.799 261.824 120.543 262.12 120.231C262.424 119.919 262.652 119.571 262.804 119.187C262.956 118.803 263.032 118.423 263.032 118.047C263.032 117.583 262.972 117.159 262.852 116.775C262.732 116.391 262.508 116.059 262.18 115.779C261.852 115.499 261.4 115.279 260.824 115.119C260.256 114.959 259.524 114.879 258.628 114.879V113.331C259.364 113.323 259.988 113.243 260.5 113.091C261.02 112.939 261.44 112.731 261.76 112.467C262.088 112.203 262.324 111.887 262.468 111.519C262.62 111.151 262.696 110.743 262.696 110.295C262.696 109.799 262.616 109.367 262.456 108.999C262.304 108.631 262.092 108.327 261.82 108.087C261.548 107.847 261.224 107.667 260.848 107.547C260.48 107.427 260.08 107.367 259.648 107.367C259.216 107.367 258.812 107.431 258.436 107.559C258.068 107.687 257.74 107.867 257.452 108.099C257.172 108.323 256.936 108.591 256.744 108.903C256.552 109.215 256.416 109.559 256.336 109.935C256.232 110.215 256.1 110.403 255.94 110.499C255.788 110.587 255.564 110.611 255.268 110.571L254.152 110.379ZM269.502 110.775C269.502 111.319 269.578 111.807 269.73 112.239C269.89 112.663 270.114 113.023 270.402 113.319C270.698 113.615 271.054 113.839 271.47 113.991C271.894 114.143 272.366 114.219 272.886 114.219C273.462 114.219 273.97 114.127 274.41 113.943C274.858 113.751 275.234 113.499 275.538 113.187C275.842 112.875 276.074 112.515 276.234 112.107C276.394 111.699 276.474 111.275 276.474 110.835C276.474 110.299 276.386 109.815 276.21 109.383C276.042 108.943 275.806 108.571 275.502 108.267C275.198 107.963 274.834 107.731 274.41 107.571C273.994 107.403 273.534 107.319 273.03 107.319C272.502 107.319 272.022 107.407 271.59 107.583C271.158 107.751 270.786 107.987 270.474 108.291C270.162 108.595 269.922 108.959 269.754 109.383C269.586 109.807 269.502 110.271 269.502 110.775ZM274.494 116.067C274.67 115.835 274.834 115.615 274.986 115.407C275.138 115.199 275.282 114.991 275.418 114.783C274.978 115.135 274.482 115.403 273.93 115.587C273.378 115.771 272.794 115.863 272.178 115.863C271.53 115.863 270.914 115.755 270.33 115.539C269.754 115.323 269.246 115.007 268.806 114.591C268.366 114.167 268.014 113.651 267.75 113.043C267.494 112.427 267.366 111.723 267.366 110.931C267.366 110.179 267.506 109.475 267.786 108.819C268.066 108.163 268.458 107.591 268.962 107.103C269.466 106.615 270.066 106.231 270.762 105.951C271.458 105.671 272.222 105.531 273.054 105.531C273.878 105.531 274.626 105.667 275.298 105.939C275.97 106.211 276.546 106.591 277.026 107.079C277.506 107.567 277.874 108.151 278.13 108.831C278.394 109.511 278.526 110.263 278.526 111.087C278.526 111.583 278.478 112.055 278.382 112.503C278.294 112.943 278.162 113.379 277.986 113.811C277.818 114.235 277.61 114.659 277.362 115.083C277.114 115.499 276.834 115.927 276.522 116.367L272.334 122.415C272.23 122.567 272.082 122.691 271.89 122.787C271.698 122.875 271.478 122.919 271.23 122.919H269.262L274.494 116.067ZM288.38 116.715V109.623C288.38 109.415 288.388 109.187 288.404 108.939C288.42 108.691 288.444 108.439 288.476 108.183L282.212 116.715H288.38ZM292.856 116.715V117.939C292.856 118.067 292.816 118.175 292.736 118.263C292.664 118.351 292.548 118.395 292.388 118.395H290.252V122.919H288.38V118.395H280.748C280.588 118.395 280.448 118.351 280.328 118.263C280.216 118.167 280.144 118.051 280.112 117.915L279.896 116.823L288.26 105.723H290.252V116.715H292.856ZM306.106 105.723V106.683C306.106 106.955 306.074 107.179 306.01 107.355C305.954 107.531 305.898 107.679 305.842 107.799L298.714 122.163C298.61 122.371 298.466 122.551 298.282 122.703C298.098 122.847 297.854 122.919 297.55 122.919H296.014L303.238 108.735C303.342 108.535 303.45 108.351 303.562 108.183C303.674 108.015 303.794 107.855 303.922 107.703H294.946C294.81 107.703 294.69 107.651 294.586 107.547C294.482 107.435 294.43 107.311 294.43 107.175V105.723H306.106Z" fill="white"/>
<path opacity="0.8" d="M61.0261 169.626V176.881H60.2511C60.1344 176.881 60.0361 176.863 59.9561 176.826C59.8761 176.786 59.7978 176.72 59.7211 176.626L56.1061 172.026C56.1161 172.143 56.1228 172.258 56.1261 172.371C56.1328 172.485 56.1361 172.59 56.1361 172.686V176.881H54.8111V169.626H55.6011C55.6644 169.626 55.7178 169.63 55.7611 169.636C55.8078 169.64 55.8494 169.651 55.8861 169.671C55.9228 169.688 55.9578 169.711 55.9911 169.741C56.0244 169.771 56.0611 169.811 56.1011 169.861L59.7411 174.481C59.7278 174.355 59.7178 174.233 59.7111 174.116C59.7044 173.996 59.7011 173.883 59.7011 173.776V169.626H61.0261ZM64.1162 171.646C64.5029 171.646 64.8546 171.708 65.1712 171.831C65.4879 171.955 65.7596 172.131 65.9862 172.361C66.2129 172.588 66.3879 172.865 66.5112 173.191C66.6346 173.518 66.6962 173.886 66.6962 174.296C66.6962 174.706 66.6346 175.076 66.5112 175.406C66.3879 175.733 66.2129 176.011 65.9862 176.241C65.7596 176.471 65.4879 176.648 65.1712 176.771C64.8546 176.895 64.5029 176.956 64.1162 176.956C63.7262 176.956 63.3712 176.895 63.0512 176.771C62.7346 176.648 62.4629 176.471 62.2362 176.241C62.0096 176.011 61.8329 175.733 61.7062 175.406C61.5829 175.076 61.5212 174.706 61.5212 174.296C61.5212 173.886 61.5829 173.518 61.7062 173.191C61.8329 172.865 62.0096 172.588 62.2362 172.361C62.4629 172.131 62.7346 171.955 63.0512 171.831C63.3712 171.708 63.7262 171.646 64.1162 171.646ZM64.1162 175.921C64.5096 175.921 64.8012 175.786 64.9912 175.516C65.1812 175.243 65.2762 174.838 65.2762 174.301C65.2762 173.768 65.1812 173.366 64.9912 173.096C64.8012 172.823 64.5096 172.686 64.1162 172.686C63.7129 172.686 63.4162 172.823 63.2262 173.096C63.0362 173.366 62.9412 173.768 62.9412 174.301C62.9412 174.838 63.0362 175.243 63.2262 175.516C63.4162 175.786 63.7129 175.921 64.1162 175.921ZM67.1547 176.881V171.726H68.0047C68.1781 171.726 68.2931 171.806 68.3497 171.966L68.4297 172.301C68.5197 172.208 68.6114 172.121 68.7047 172.041C68.8014 171.961 68.9047 171.893 69.0147 171.836C69.1247 171.776 69.2431 171.73 69.3697 171.696C69.4997 171.663 69.6397 171.646 69.7897 171.646C70.1064 171.646 70.3681 171.731 70.5747 171.901C70.7814 172.068 70.9381 172.291 71.0447 172.571C71.1281 172.408 71.2297 172.268 71.3497 172.151C71.4731 172.031 71.6064 171.935 71.7497 171.861C71.8964 171.788 72.0497 171.735 72.2097 171.701C72.3731 171.665 72.5364 171.646 72.6997 171.646C72.9897 171.646 73.2464 171.69 73.4697 171.776C73.6931 171.863 73.8797 171.991 74.0297 172.161C74.1831 172.328 74.2997 172.533 74.3797 172.776C74.4597 173.02 74.4997 173.296 74.4997 173.606V176.881H73.1197V173.606C73.1197 173.003 72.8614 172.701 72.3447 172.701C72.2281 172.701 72.1197 172.721 72.0197 172.761C71.9231 172.798 71.8364 172.855 71.7597 172.931C71.6864 173.008 71.6281 173.103 71.5847 173.216C71.5447 173.33 71.5247 173.46 71.5247 173.606V176.881H70.1447V173.606C70.1447 173.28 70.0797 173.048 69.9497 172.911C69.8231 172.771 69.6347 172.701 69.3847 172.701C69.2247 172.701 69.0731 172.74 68.9297 172.816C68.7897 172.89 68.6581 172.993 68.5347 173.126V176.881H67.1547ZM76.5642 175.521C76.6942 175.671 76.8342 175.776 76.9842 175.836C77.1376 175.896 77.2959 175.926 77.4592 175.926C77.6292 175.926 77.7826 175.896 77.9192 175.836C78.0592 175.773 78.1792 175.675 78.2792 175.541C78.3792 175.405 78.4559 175.228 78.5092 175.011C78.5626 174.795 78.5892 174.533 78.5892 174.226C78.5892 173.953 78.5676 173.721 78.5242 173.531C78.4809 173.338 78.4159 173.18 78.3292 173.056C78.2459 172.933 78.1426 172.843 78.0192 172.786C77.8959 172.73 77.7526 172.701 77.5892 172.701C77.3726 172.701 77.1842 172.75 77.0242 172.846C76.8676 172.94 76.7142 173.078 76.5642 173.261V175.521ZM76.5642 172.321C76.7676 172.118 76.9926 171.955 77.2392 171.831C77.4859 171.708 77.7626 171.646 78.0692 171.646C78.3659 171.646 78.6326 171.706 78.8692 171.826C79.1092 171.943 79.3126 172.111 79.4792 172.331C79.6492 172.551 79.7792 172.818 79.8692 173.131C79.9626 173.441 80.0092 173.79 80.0092 174.176C80.0092 174.593 79.9559 174.973 79.8492 175.316C79.7459 175.656 79.5976 175.948 79.4042 176.191C79.2109 176.435 78.9792 176.623 78.7092 176.756C78.4426 176.89 78.1442 176.956 77.8142 176.956C77.6542 176.956 77.5109 176.94 77.3842 176.906C77.2576 176.876 77.1409 176.833 77.0342 176.776C76.9276 176.72 76.8292 176.653 76.7392 176.576C76.6492 176.496 76.5642 176.408 76.4842 176.311L76.4292 176.621C76.4059 176.718 76.3676 176.786 76.3142 176.826C76.2609 176.863 76.1892 176.881 76.0992 176.881H75.1842V169.426H76.5642V172.321ZM81.7841 172.576C81.9474 172.283 82.1358 172.051 82.3491 171.881C82.5624 171.711 82.8124 171.626 83.0991 171.626C83.3324 171.626 83.5224 171.681 83.6691 171.791L83.5791 172.811C83.5624 172.878 83.5358 172.925 83.4991 172.951C83.4658 172.975 83.4191 172.986 83.3591 172.986C83.3058 172.986 83.2291 172.98 83.1291 172.966C83.0291 172.95 82.9358 172.941 82.8491 172.941C82.7224 172.941 82.6091 172.96 82.5091 172.996C82.4124 173.033 82.3258 173.085 82.2491 173.151C82.1724 173.218 82.1024 173.3 82.0391 173.396C81.9791 173.493 81.9224 173.603 81.8691 173.726V176.881H80.4891V171.726H81.3041C81.4441 171.726 81.5408 171.751 81.5941 171.801C81.6474 171.851 81.6858 171.938 81.7091 172.061L81.7841 172.576ZM87.0035 173.696C87.0035 173.553 86.9835 173.416 86.9435 173.286C86.9068 173.156 86.8468 173.041 86.7635 172.941C86.6801 172.841 86.5751 172.763 86.4485 172.706C86.3218 172.646 86.1701 172.616 85.9935 172.616C85.6635 172.616 85.4051 172.71 85.2185 172.896C85.0318 173.083 84.9101 173.35 84.8535 173.696H87.0035ZM84.8335 174.516C84.8768 175 85.0135 175.353 85.2435 175.576C85.4768 175.8 85.7801 175.911 86.1535 175.911C86.3435 175.911 86.5068 175.89 86.6435 175.846C86.7835 175.8 86.9051 175.75 87.0085 175.696C87.1151 175.64 87.2101 175.59 87.2935 175.546C87.3801 175.5 87.4651 175.476 87.5485 175.476C87.6551 175.476 87.7385 175.516 87.7985 175.596L88.1985 176.096C88.0518 176.266 87.8901 176.408 87.7135 176.521C87.5368 176.631 87.3535 176.72 87.1635 176.786C86.9735 176.85 86.7818 176.893 86.5885 176.916C86.3951 176.943 86.2085 176.956 86.0285 176.956C85.6685 176.956 85.3318 176.898 85.0185 176.781C84.7085 176.661 84.4368 176.486 84.2035 176.256C83.9735 176.023 83.7918 175.735 83.6585 175.391C83.5251 175.048 83.4585 174.65 83.4585 174.196C83.4585 173.846 83.5151 173.516 83.6285 173.206C83.7451 172.896 83.9118 172.626 84.1285 172.396C84.3451 172.166 84.6085 171.985 84.9185 171.851C85.2285 171.715 85.5785 171.646 85.9685 171.646C86.2985 171.646 86.6018 171.7 86.8785 171.806C87.1585 171.91 87.3985 172.061 87.5985 172.261C87.8018 172.461 87.9585 172.708 88.0685 173.001C88.1818 173.291 88.2385 173.623 88.2385 173.996C88.2385 174.1 88.2335 174.185 88.2235 174.251C88.2135 174.318 88.1968 174.371 88.1735 174.411C88.1501 174.451 88.1185 174.48 88.0785 174.496C88.0385 174.51 87.9868 174.516 87.9235 174.516H84.8335ZM95.1779 171.726L92.3979 178.266C92.3546 178.36 92.3013 178.43 92.2379 178.476C92.1779 178.523 92.0813 178.546 91.9479 178.546H90.9229L91.8979 176.466L89.8279 171.726H91.0379C91.1479 171.726 91.2329 171.751 91.2929 171.801C91.3529 171.851 91.3963 171.91 91.4229 171.976L92.4029 174.441C92.4396 174.538 92.4713 174.636 92.4979 174.736C92.5279 174.833 92.5563 174.93 92.5829 175.026C92.6429 174.83 92.7113 174.633 92.7879 174.436L93.6979 171.976C93.7246 171.903 93.7729 171.843 93.8429 171.796C93.9129 171.75 93.9896 171.726 94.0729 171.726H95.1779ZM99.7183 174.726C99.3817 174.743 99.1017 174.773 98.8783 174.816C98.655 174.856 98.4767 174.91 98.3433 174.976C98.2133 175.043 98.12 175.12 98.0633 175.206C98.01 175.29 97.9833 175.381 97.9833 175.481C97.9833 175.681 98.0383 175.823 98.1483 175.906C98.2617 175.99 98.4183 176.031 98.6183 176.031C98.8483 176.031 99.0467 175.991 99.2133 175.911C99.3833 175.828 99.5517 175.7 99.7183 175.526V174.726ZM96.9083 172.441C97.2117 172.168 97.5467 171.965 97.9133 171.831C98.28 171.695 98.6767 171.626 99.1033 171.626C99.41 171.626 99.6833 171.676 99.9233 171.776C100.167 171.876 100.372 172.016 100.538 172.196C100.708 172.373 100.838 172.585 100.928 172.831C101.018 173.078 101.063 173.348 101.063 173.641V176.881H100.433C100.303 176.881 100.203 176.863 100.133 176.826C100.067 176.79 100.012 176.713 99.9683 176.596L99.8583 176.266C99.7283 176.38 99.6017 176.48 99.4783 176.566C99.3583 176.653 99.2333 176.726 99.1033 176.786C98.9733 176.843 98.8333 176.886 98.6833 176.916C98.5367 176.946 98.3717 176.961 98.1883 176.961C97.9617 176.961 97.755 176.931 97.5683 176.871C97.3817 176.811 97.22 176.723 97.0833 176.606C96.95 176.486 96.8467 176.338 96.7733 176.161C96.7 175.985 96.6633 175.781 96.6633 175.551C96.6633 175.361 96.7117 175.171 96.8083 174.981C96.905 174.791 97.07 174.62 97.3033 174.466C97.54 174.31 97.8533 174.181 98.2433 174.081C98.6367 173.978 99.1283 173.92 99.7183 173.906V173.641C99.7183 173.318 99.65 173.081 99.5133 172.931C99.3767 172.778 99.18 172.701 98.9233 172.701C98.7333 172.701 98.575 172.725 98.4483 172.771C98.3217 172.815 98.21 172.863 98.1133 172.916C98.02 172.966 97.9317 173.015 97.8483 173.061C97.765 173.105 97.6683 173.126 97.5583 173.126C97.4617 173.126 97.38 173.103 97.3133 173.056C97.25 173.006 97.1967 172.948 97.1533 172.881L96.9083 172.441ZM103.113 175.521C103.243 175.671 103.383 175.776 103.533 175.836C103.686 175.896 103.849 175.926 104.023 175.926C104.189 175.926 104.341 175.895 104.478 175.831C104.614 175.768 104.731 175.67 104.828 175.536C104.928 175.4 105.004 175.226 105.058 175.016C105.111 174.806 105.138 174.556 105.138 174.266C105.138 173.98 105.114 173.736 105.068 173.536C105.024 173.336 104.961 173.175 104.878 173.051C104.798 172.928 104.699 172.84 104.583 172.786C104.466 172.73 104.336 172.701 104.193 172.701C103.949 172.701 103.744 172.75 103.578 172.846C103.414 172.94 103.259 173.078 103.113 173.261V175.521ZM103.033 172.401C103.136 172.288 103.246 172.185 103.363 172.091C103.479 171.995 103.604 171.913 103.738 171.846C103.871 171.776 104.014 171.723 104.168 171.686C104.321 171.646 104.488 171.626 104.668 171.626C104.944 171.626 105.198 171.686 105.428 171.806C105.661 171.923 105.861 172.095 106.028 172.321C106.194 172.545 106.324 172.82 106.418 173.146C106.511 173.473 106.558 173.846 106.558 174.266C106.558 174.653 106.504 175.011 106.398 175.341C106.294 175.668 106.146 175.951 105.953 176.191C105.759 176.431 105.526 176.62 105.253 176.756C104.983 176.89 104.681 176.956 104.348 176.956C104.068 176.956 103.829 176.915 103.633 176.831C103.439 176.748 103.266 176.635 103.113 176.491V178.546H101.733V171.726H102.583C102.756 171.726 102.871 171.806 102.928 171.966L103.033 172.401ZM110.307 173.696C110.307 173.553 110.287 173.416 110.247 173.286C110.211 173.156 110.151 173.041 110.067 172.941C109.984 172.841 109.879 172.763 109.752 172.706C109.626 172.646 109.474 172.616 109.297 172.616C108.967 172.616 108.709 172.71 108.522 172.896C108.336 173.083 108.214 173.35 108.157 173.696H110.307ZM108.137 174.516C108.181 175 108.317 175.353 108.547 175.576C108.781 175.8 109.084 175.911 109.457 175.911C109.647 175.911 109.811 175.89 109.947 175.846C110.087 175.8 110.209 175.75 110.312 175.696C110.419 175.64 110.514 175.59 110.597 175.546C110.684 175.5 110.769 175.476 110.852 175.476C110.959 175.476 111.042 175.516 111.102 175.596L111.502 176.096C111.356 176.266 111.194 176.408 111.017 176.521C110.841 176.631 110.657 176.72 110.467 176.786C110.277 176.85 110.086 176.893 109.892 176.916C109.699 176.943 109.512 176.956 109.332 176.956C108.972 176.956 108.636 176.898 108.322 176.781C108.012 176.661 107.741 176.486 107.507 176.256C107.277 176.023 107.096 175.735 106.962 175.391C106.829 175.048 106.762 174.65 106.762 174.196C106.762 173.846 106.819 173.516 106.932 173.206C107.049 172.896 107.216 172.626 107.432 172.396C107.649 172.166 107.912 171.985 108.222 171.851C108.532 171.715 108.882 171.646 109.272 171.646C109.602 171.646 109.906 171.7 110.182 171.806C110.462 171.91 110.702 172.061 110.902 172.261C111.106 172.461 111.262 172.708 111.372 173.001C111.486 173.291 111.542 173.623 111.542 173.996C111.542 174.1 111.537 174.185 111.527 174.251C111.517 174.318 111.501 174.371 111.477 174.411C111.454 174.451 111.422 174.48 111.382 174.496C111.342 174.51 111.291 174.516 111.227 174.516H108.137ZM113.381 169.426V176.881H112.001V169.426H113.381ZM115.512 169.426V176.881H114.132V169.426H115.512ZM117.673 171.726V176.881H116.293V171.726H117.673ZM117.838 170.261C117.838 170.378 117.815 170.486 117.768 170.586C117.721 170.686 117.658 170.775 117.578 170.851C117.501 170.928 117.41 170.988 117.303 171.031C117.2 171.075 117.088 171.096 116.968 171.096C116.855 171.096 116.746 171.075 116.643 171.031C116.543 170.988 116.455 170.928 116.378 170.851C116.301 170.775 116.24 170.686 116.193 170.586C116.15 170.486 116.128 170.378 116.128 170.261C116.128 170.145 116.15 170.036 116.193 169.936C116.24 169.833 116.301 169.743 116.378 169.666C116.455 169.59 116.543 169.53 116.643 169.486C116.746 169.443 116.855 169.421 116.968 169.421C117.088 169.421 117.2 169.443 117.303 169.486C117.41 169.53 117.501 169.59 117.578 169.666C117.658 169.743 117.721 169.833 117.768 169.936C117.815 170.036 117.838 170.145 117.838 170.261ZM121.628 173.066C121.498 172.916 121.356 172.811 121.203 172.751C121.053 172.691 120.893 172.661 120.723 172.661C120.556 172.661 120.404 172.693 120.268 172.756C120.131 172.82 120.013 172.92 119.913 173.056C119.816 173.19 119.741 173.361 119.688 173.571C119.634 173.781 119.608 174.031 119.608 174.321C119.608 174.608 119.629 174.851 119.673 175.051C119.716 175.251 119.778 175.413 119.858 175.536C119.941 175.66 120.041 175.75 120.158 175.806C120.274 175.86 120.404 175.886 120.548 175.886C120.791 175.886 120.994 175.838 121.158 175.741C121.324 175.645 121.481 175.508 121.628 175.331V173.066ZM123.008 169.426V176.881H122.158C121.981 176.881 121.868 176.801 121.818 176.641L121.703 176.191C121.599 176.305 121.489 176.408 121.373 176.501C121.259 176.595 121.136 176.676 121.003 176.746C120.869 176.813 120.726 176.865 120.573 176.901C120.419 176.938 120.253 176.956 120.073 176.956C119.796 176.956 119.543 176.898 119.313 176.781C119.083 176.665 118.883 176.495 118.713 176.271C118.546 176.045 118.416 175.768 118.323 175.441C118.229 175.115 118.183 174.741 118.183 174.321C118.183 173.938 118.234 173.581 118.338 173.251C118.444 172.921 118.594 172.636 118.788 172.396C118.981 172.156 119.214 171.968 119.488 171.831C119.761 171.695 120.064 171.626 120.398 171.626C120.678 171.626 120.913 171.668 121.103 171.751C121.296 171.835 121.471 171.948 121.628 172.091V169.426H123.008ZM126.072 171.646C126.459 171.646 126.811 171.708 127.127 171.831C127.444 171.955 127.716 172.131 127.942 172.361C128.169 172.588 128.344 172.865 128.467 173.191C128.591 173.518 128.652 173.886 128.652 174.296C128.652 174.706 128.591 175.076 128.467 175.406C128.344 175.733 128.169 176.011 127.942 176.241C127.716 176.471 127.444 176.648 127.127 176.771C126.811 176.895 126.459 176.956 126.072 176.956C125.682 176.956 125.327 176.895 125.007 176.771C124.691 176.648 124.419 176.471 124.192 176.241C123.966 176.011 123.789 175.733 123.662 175.406C123.539 175.076 123.477 174.706 123.477 174.296C123.477 173.886 123.539 173.518 123.662 173.191C123.789 172.865 123.966 172.588 124.192 172.361C124.419 172.131 124.691 171.955 125.007 171.831C125.327 171.708 125.682 171.646 126.072 171.646ZM126.072 175.921C126.466 175.921 126.757 175.786 126.947 175.516C127.137 175.243 127.232 174.838 127.232 174.301C127.232 173.768 127.137 173.366 126.947 173.096C126.757 172.823 126.466 172.686 126.072 172.686C125.669 172.686 125.372 172.823 125.182 173.096C124.992 173.366 124.897 173.768 124.897 174.301C124.897 174.838 124.992 175.243 125.182 175.516C125.372 175.786 125.669 175.921 126.072 175.921Z" fill="white"/>
<path opacity="0.8" d="M211.11 169.626L208.19 176.881H206.83L203.91 169.626H205.12C205.25 169.626 205.355 169.658 205.435 169.721C205.518 169.781 205.58 169.86 205.62 169.956L207.19 174.136C207.25 174.293 207.308 174.465 207.365 174.651C207.425 174.835 207.48 175.028 207.53 175.231C207.573 175.028 207.62 174.835 207.67 174.651C207.723 174.465 207.78 174.293 207.84 174.136L209.4 169.956C209.433 169.873 209.492 169.798 209.575 169.731C209.662 169.661 209.768 169.626 209.895 169.626H211.11ZM213.643 173.696C213.643 173.553 213.623 173.416 213.583 173.286C213.546 173.156 213.486 173.041 213.403 172.941C213.32 172.841 213.215 172.763 213.088 172.706C212.961 172.646 212.81 172.616 212.633 172.616C212.303 172.616 212.045 172.71 211.858 172.896C211.671 173.083 211.55 173.35 211.493 173.696H213.643ZM211.473 174.516C211.516 175 211.653 175.353 211.883 175.576C212.116 175.8 212.42 175.911 212.793 175.911C212.983 175.911 213.146 175.89 213.283 175.846C213.423 175.8 213.545 175.75 213.648 175.696C213.755 175.64 213.85 175.59 213.933 175.546C214.02 175.5 214.105 175.476 214.188 175.476C214.295 175.476 214.378 175.516 214.438 175.596L214.838 176.096C214.691 176.266 214.53 176.408 214.353 176.521C214.176 176.631 213.993 176.72 213.803 176.786C213.613 176.85 213.421 176.893 213.228 176.916C213.035 176.943 212.848 176.956 212.668 176.956C212.308 176.956 211.971 176.898 211.658 176.781C211.348 176.661 211.076 176.486 210.843 176.256C210.613 176.023 210.431 175.735 210.298 175.391C210.165 175.048 210.098 174.65 210.098 174.196C210.098 173.846 210.155 173.516 210.268 173.206C210.385 172.896 210.551 172.626 210.768 172.396C210.985 172.166 211.248 171.985 211.558 171.851C211.868 171.715 212.218 171.646 212.608 171.646C212.938 171.646 213.241 171.7 213.518 171.806C213.798 171.91 214.038 172.061 214.238 172.261C214.441 172.461 214.598 172.708 214.708 173.001C214.821 173.291 214.878 173.623 214.878 173.996C214.878 174.1 214.873 174.185 214.863 174.251C214.853 174.318 214.836 174.371 214.813 174.411C214.79 174.451 214.758 174.48 214.718 174.496C214.678 174.51 214.626 174.516 214.563 174.516H211.473ZM216.606 172.326C216.71 172.226 216.816 172.135 216.926 172.051C217.04 171.968 217.158 171.896 217.281 171.836C217.408 171.776 217.543 171.73 217.686 171.696C217.833 171.663 217.991 171.646 218.161 171.646C218.441 171.646 218.69 171.695 218.906 171.791C219.123 171.888 219.305 172.023 219.451 172.196C219.601 172.37 219.713 172.576 219.786 172.816C219.863 173.056 219.901 173.32 219.901 173.606V176.881H218.526V173.606C218.526 173.32 218.46 173.098 218.326 172.941C218.193 172.781 217.996 172.701 217.736 172.701C217.543 172.701 217.361 172.743 217.191 172.826C217.021 172.91 216.86 173.026 216.706 173.176V176.881H215.326V171.726H216.176C216.35 171.726 216.465 171.806 216.521 171.966L216.606 172.326ZM224.332 172.876C224.292 172.93 224.252 172.971 224.212 173.001C224.172 173.028 224.115 173.041 224.042 173.041C223.975 173.041 223.91 173.023 223.847 172.986C223.787 172.946 223.717 172.905 223.637 172.861C223.557 172.815 223.462 172.773 223.352 172.736C223.242 172.696 223.105 172.676 222.942 172.676C222.735 172.676 222.555 172.715 222.402 172.791C222.252 172.865 222.127 172.971 222.027 173.111C221.927 173.251 221.852 173.421 221.802 173.621C221.755 173.821 221.732 174.046 221.732 174.296C221.732 174.823 221.837 175.226 222.047 175.506C222.26 175.786 222.55 175.926 222.917 175.926C223.044 175.926 223.152 175.916 223.242 175.896C223.335 175.873 223.415 175.845 223.482 175.811C223.552 175.778 223.612 175.741 223.662 175.701C223.712 175.661 223.759 175.625 223.802 175.591C223.849 175.558 223.894 175.531 223.937 175.511C223.984 175.488 224.035 175.476 224.092 175.476C224.199 175.476 224.282 175.516 224.342 175.596L224.737 176.096C224.59 176.266 224.434 176.408 224.267 176.521C224.1 176.631 223.927 176.72 223.747 176.786C223.57 176.85 223.39 176.893 223.207 176.916C223.024 176.943 222.842 176.956 222.662 176.956C222.345 176.956 222.045 176.898 221.762 176.781C221.479 176.661 221.23 176.488 221.017 176.261C220.804 176.035 220.634 175.756 220.507 175.426C220.384 175.096 220.322 174.72 220.322 174.296C220.322 173.92 220.377 173.57 220.487 173.246C220.597 172.923 220.759 172.643 220.972 172.406C221.185 172.17 221.449 171.985 221.762 171.851C222.079 171.715 222.444 171.646 222.857 171.646C223.25 171.646 223.595 171.71 223.892 171.836C224.189 171.963 224.455 172.146 224.692 172.386L224.332 172.876ZM226.448 171.726V176.881H225.068V171.726H226.448ZM226.613 170.261C226.613 170.378 226.59 170.486 226.543 170.586C226.496 170.686 226.433 170.775 226.353 170.851C226.276 170.928 226.185 170.988 226.078 171.031C225.975 171.075 225.863 171.096 225.743 171.096C225.63 171.096 225.521 171.075 225.418 171.031C225.318 170.988 225.23 170.928 225.153 170.851C225.076 170.775 225.015 170.686 224.968 170.586C224.925 170.486 224.903 170.378 224.903 170.261C224.903 170.145 224.925 170.036 224.968 169.936C225.015 169.833 225.076 169.743 225.153 169.666C225.23 169.59 225.318 169.53 225.418 169.486C225.521 169.443 225.63 169.421 225.743 169.421C225.863 169.421 225.975 169.443 226.078 169.486C226.185 169.53 226.276 169.59 226.353 169.666C226.433 169.743 226.496 169.833 226.543 169.936C226.59 170.036 226.613 170.145 226.613 170.261ZM227.217 176.881V171.726H228.067C228.241 171.726 228.356 171.806 228.412 171.966L228.492 172.301C228.582 172.208 228.674 172.121 228.767 172.041C228.864 171.961 228.967 171.893 229.077 171.836C229.187 171.776 229.306 171.73 229.432 171.696C229.562 171.663 229.702 171.646 229.852 171.646C230.169 171.646 230.431 171.731 230.637 171.901C230.844 172.068 231.001 172.291 231.107 172.571C231.191 172.408 231.292 172.268 231.412 172.151C231.536 172.031 231.669 171.935 231.812 171.861C231.959 171.788 232.112 171.735 232.272 171.701C232.436 171.665 232.599 171.646 232.762 171.646C233.052 171.646 233.309 171.69 233.532 171.776C233.756 171.863 233.942 171.991 234.092 172.161C234.246 172.328 234.362 172.533 234.442 172.776C234.522 173.02 234.562 173.296 234.562 173.606V176.881H233.182V173.606C233.182 173.003 232.924 172.701 232.407 172.701C232.291 172.701 232.182 172.721 232.082 172.761C231.986 172.798 231.899 172.855 231.822 172.931C231.749 173.008 231.691 173.103 231.647 173.216C231.607 173.33 231.587 173.46 231.587 173.606V176.881H230.207V173.606C230.207 173.28 230.142 173.048 230.012 172.911C229.886 172.771 229.697 172.701 229.447 172.701C229.287 172.701 229.136 172.74 228.992 172.816C228.852 172.89 228.721 172.993 228.597 173.126V176.881H227.217ZM236.667 171.726V176.881H235.287V171.726H236.667ZM236.832 170.261C236.832 170.378 236.809 170.486 236.762 170.586C236.715 170.686 236.652 170.775 236.572 170.851C236.495 170.928 236.404 170.988 236.297 171.031C236.194 171.075 236.082 171.096 235.962 171.096C235.849 171.096 235.74 171.075 235.637 171.031C235.537 170.988 235.449 170.928 235.372 170.851C235.295 170.775 235.234 170.686 235.187 170.586C235.144 170.486 235.122 170.378 235.122 170.261C235.122 170.145 235.144 170.036 235.187 169.936C235.234 169.833 235.295 169.743 235.372 169.666C235.449 169.59 235.537 169.53 235.637 169.486C235.74 169.443 235.849 169.421 235.962 169.421C236.082 169.421 236.194 169.443 236.297 169.486C236.404 169.53 236.495 169.59 236.572 169.666C236.652 169.743 236.715 169.833 236.762 169.936C236.809 170.036 236.832 170.145 236.832 170.261ZM240.707 173.696C240.707 173.553 240.687 173.416 240.647 173.286C240.61 173.156 240.55 173.041 240.467 172.941C240.383 172.841 240.278 172.763 240.152 172.706C240.025 172.646 239.873 172.616 239.697 172.616C239.367 172.616 239.108 172.71 238.922 172.896C238.735 173.083 238.613 173.35 238.557 173.696H240.707ZM238.537 174.516C238.58 175 238.717 175.353 238.947 175.576C239.18 175.8 239.483 175.911 239.857 175.911C240.047 175.911 240.21 175.89 240.347 175.846C240.487 175.8 240.608 175.75 240.712 175.696C240.818 175.64 240.913 175.59 240.997 175.546C241.083 175.5 241.168 175.476 241.252 175.476C241.358 175.476 241.442 175.516 241.502 175.596L241.902 176.096C241.755 176.266 241.593 176.408 241.417 176.521C241.24 176.631 241.057 176.72 240.867 176.786C240.677 176.85 240.485 176.893 240.292 176.916C240.098 176.943 239.912 176.956 239.732 176.956C239.372 176.956 239.035 176.898 238.722 176.781C238.412 176.661 238.14 176.486 237.907 176.256C237.677 176.023 237.495 175.735 237.362 175.391C237.228 175.048 237.162 174.65 237.162 174.196C237.162 173.846 237.218 173.516 237.332 173.206C237.448 172.896 237.615 172.626 237.832 172.396C238.048 172.166 238.312 171.985 238.622 171.851C238.932 171.715 239.282 171.646 239.672 171.646C240.002 171.646 240.305 171.7 240.582 171.806C240.862 171.91 241.102 172.061 241.302 172.261C241.505 172.461 241.662 172.708 241.772 173.001C241.885 173.291 241.942 173.623 241.942 173.996C241.942 174.1 241.937 174.185 241.927 174.251C241.917 174.318 241.9 174.371 241.877 174.411C241.853 174.451 241.822 174.48 241.782 174.496C241.742 174.51 241.69 174.516 241.627 174.516H238.537ZM243.67 172.326C243.773 172.226 243.88 172.135 243.99 172.051C244.103 171.968 244.222 171.896 244.345 171.836C244.472 171.776 244.607 171.73 244.75 171.696C244.897 171.663 245.055 171.646 245.225 171.646C245.505 171.646 245.753 171.695 245.97 171.791C246.187 171.888 246.368 172.023 246.515 172.196C246.665 172.37 246.777 172.576 246.85 172.816C246.927 173.056 246.965 173.32 246.965 173.606V176.881H245.59V173.606C245.59 173.32 245.523 173.098 245.39 172.941C245.257 172.781 245.06 172.701 244.8 172.701C244.607 172.701 244.425 172.743 244.255 172.826C244.085 172.91 243.923 173.026 243.77 173.176V176.881H242.39V171.726H243.24C243.413 171.726 243.528 171.806 243.585 171.966L243.67 172.326ZM249.367 176.961C249.134 176.961 248.927 176.928 248.747 176.861C248.567 176.791 248.416 176.693 248.292 176.566C248.169 176.44 248.076 176.286 248.012 176.106C247.949 175.926 247.917 175.723 247.917 175.496V172.716H247.432C247.359 172.716 247.296 172.693 247.242 172.646C247.192 172.6 247.167 172.53 247.167 172.436V171.896L247.992 171.746L248.272 170.411C248.309 170.261 248.411 170.186 248.577 170.186H249.297V171.756H250.627V172.716H249.297V175.406C249.297 175.55 249.331 175.663 249.397 175.746C249.467 175.83 249.566 175.871 249.692 175.871C249.759 175.871 249.816 175.865 249.862 175.851C249.909 175.835 249.949 175.818 249.982 175.801C250.016 175.781 250.046 175.765 250.072 175.751C250.102 175.735 250.132 175.726 250.162 175.726C250.202 175.726 250.236 175.736 250.262 175.756C250.289 175.773 250.316 175.803 250.342 175.846L250.757 176.506C250.567 176.656 250.352 176.77 250.112 176.846C249.872 176.923 249.624 176.961 249.367 176.961ZM253.235 171.646C253.622 171.646 253.973 171.708 254.29 171.831C254.607 171.955 254.878 172.131 255.105 172.361C255.332 172.588 255.507 172.865 255.63 173.191C255.753 173.518 255.815 173.886 255.815 174.296C255.815 174.706 255.753 175.076 255.63 175.406C255.507 175.733 255.332 176.011 255.105 176.241C254.878 176.471 254.607 176.648 254.29 176.771C253.973 176.895 253.622 176.956 253.235 176.956C252.845 176.956 252.49 176.895 252.17 176.771C251.853 176.648 251.582 176.471 251.355 176.241C251.128 176.011 250.952 175.733 250.825 175.406C250.702 175.076 250.64 174.706 250.64 174.296C250.64 173.886 250.702 173.518 250.825 173.191C250.952 172.865 251.128 172.588 251.355 172.361C251.582 172.131 251.853 171.955 252.17 171.831C252.49 171.708 252.845 171.646 253.235 171.646ZM253.235 175.921C253.628 175.921 253.92 175.786 254.11 175.516C254.3 175.243 254.395 174.838 254.395 174.301C254.395 173.768 254.3 173.366 254.11 173.096C253.92 172.823 253.628 172.686 253.235 172.686C252.832 172.686 252.535 172.823 252.345 173.096C252.155 173.366 252.06 173.768 252.06 174.301C252.06 174.838 252.155 175.243 252.345 175.516C252.535 175.786 252.832 175.921 253.235 175.921Z" fill="white"/>
<path d="M62.256 193.292V195H56.229V184.843H58.329V193.292H62.256ZM68.4975 191.143L67.3985 188.035C67.3331 187.872 67.2631 187.68 67.1885 187.461C67.1185 187.242 67.0508 187.004 66.9855 186.747C66.9201 187.008 66.8501 187.251 66.7755 187.475C66.7055 187.694 66.6378 187.886 66.5725 188.049L65.4805 191.143H68.4975ZM72.0255 195H70.3945C70.2125 195 70.0631 194.958 69.9465 194.874C69.8345 194.785 69.7505 194.673 69.6945 194.538L69.0085 192.599H64.9625L64.2765 194.538C64.2298 194.655 64.1481 194.762 64.0315 194.86C63.9148 194.953 63.7678 195 63.5905 195H61.9455L65.9145 184.843H68.0635L72.0255 195ZM76.4558 193.32C76.7964 193.32 77.1021 193.264 77.3728 193.152C77.6434 193.035 77.8721 192.872 78.0588 192.662C78.2454 192.452 78.3878 192.198 78.4858 191.899C78.5838 191.6 78.6328 191.264 78.6328 190.891V184.843H80.7328V190.891C80.7328 191.507 80.6324 192.074 80.4318 192.592C80.2358 193.105 79.9534 193.549 79.5848 193.922C79.2161 194.295 78.7681 194.587 78.2408 194.797C77.7134 195.007 77.1184 195.112 76.4558 195.112C75.7931 195.112 75.1958 195.007 74.6638 194.797C74.1364 194.587 73.6884 194.295 73.3198 193.922C72.9511 193.549 72.6664 193.105 72.4658 192.592C72.2698 192.074 72.1718 191.507 72.1718 190.891V184.843H74.2718V190.891C74.2718 191.264 74.3208 191.6 74.4188 191.899C74.5168 192.198 74.6591 192.452 74.8458 192.662C75.0324 192.872 75.2611 193.035 75.5318 193.152C75.8024 193.264 76.1104 193.32 76.4558 193.32ZM85.4994 189.652C85.8401 189.652 86.1341 189.61 86.3814 189.526C86.6287 189.437 86.8317 189.318 86.9904 189.169C87.1491 189.015 87.2657 188.835 87.3404 188.63C87.4151 188.425 87.4524 188.201 87.4524 187.958C87.4524 187.477 87.2914 187.104 86.9694 186.838C86.6521 186.572 86.1667 186.439 85.5134 186.439H84.4214V189.652H85.4994ZM90.4204 195H88.5234C88.1687 195 87.9121 194.865 87.7534 194.594L85.8214 191.479C85.7421 191.358 85.6534 191.269 85.5554 191.213C85.4621 191.157 85.3221 191.129 85.1354 191.129H84.4214V195H82.3214V184.843H85.5134C86.2227 184.843 86.8294 184.918 87.3334 185.067C87.8374 185.212 88.2504 185.415 88.5724 185.676C88.8944 185.937 89.1301 186.25 89.2794 186.614C89.4287 186.973 89.5034 187.37 89.5034 187.804C89.5034 188.14 89.4544 188.46 89.3564 188.763C89.2631 189.062 89.1254 189.335 88.9434 189.582C88.7614 189.829 88.5374 190.049 88.2714 190.24C88.0054 190.431 87.7021 190.585 87.3614 190.702C87.4967 190.777 87.6227 190.868 87.7394 190.975C87.8561 191.078 87.9611 191.201 88.0544 191.346L90.4204 195ZM96.3672 191.143L95.2682 188.035C95.2029 187.872 95.1329 187.68 95.0582 187.461C94.9882 187.242 94.9205 187.004 94.8552 186.747C94.7899 187.008 94.7199 187.251 94.6452 187.475C94.5752 187.694 94.5075 187.886 94.4422 188.049L93.3502 191.143H96.3672ZM99.8952 195H98.2642C98.0822 195 97.9329 194.958 97.8162 194.874C97.7042 194.785 97.6202 194.673 97.5642 194.538L96.8782 192.599H92.8322L92.1462 194.538C92.0995 194.655 92.0179 194.762 91.9012 194.86C91.7845 194.953 91.6375 195 91.4602 195H89.8152L93.7842 184.843H95.9332L99.8952 195ZM108.89 193.292V195H102.863V184.843H104.963V193.292H108.89ZM119.269 189.918C119.269 190.66 119.143 191.348 118.891 191.983C118.644 192.618 118.291 193.166 117.834 193.628C117.381 194.09 116.835 194.454 116.196 194.72C115.557 194.981 114.847 195.112 114.068 195.112C113.289 195.112 112.579 194.981 111.94 194.72C111.301 194.454 110.752 194.09 110.295 193.628C109.838 193.166 109.483 192.618 109.231 191.983C108.984 191.348 108.86 190.66 108.86 189.918C108.86 189.176 108.984 188.49 109.231 187.86C109.483 187.225 109.838 186.677 110.295 186.215C110.752 185.753 111.301 185.391 111.94 185.13C112.579 184.864 113.289 184.731 114.068 184.731C114.847 184.731 115.557 184.864 116.196 185.13C116.835 185.391 117.381 185.755 117.834 186.222C118.291 186.684 118.644 187.232 118.891 187.867C119.143 188.497 119.269 189.181 119.269 189.918ZM117.12 189.918C117.12 189.386 117.05 188.91 116.91 188.49C116.77 188.065 116.567 187.706 116.301 187.412C116.04 187.113 115.72 186.887 115.342 186.733C114.969 186.574 114.544 186.495 114.068 186.495C113.592 186.495 113.165 186.574 112.787 186.733C112.409 186.887 112.087 187.113 111.821 187.412C111.56 187.706 111.359 188.065 111.219 188.49C111.079 188.91 111.009 189.386 111.009 189.918C111.009 190.455 111.079 190.935 111.219 191.36C111.359 191.78 111.56 192.137 111.821 192.431C112.087 192.725 112.409 192.951 112.787 193.11C113.165 193.264 113.592 193.341 114.068 193.341C114.544 193.341 114.969 193.264 115.342 193.11C115.72 192.951 116.04 192.725 116.301 192.431C116.567 192.137 116.77 191.78 116.91 191.36C117.05 190.935 117.12 190.455 117.12 189.918ZM123.825 189.897C124.483 189.897 124.963 189.738 125.267 189.421C125.575 189.104 125.729 188.67 125.729 188.119C125.729 187.867 125.689 187.638 125.61 187.433C125.535 187.223 125.418 187.046 125.26 186.901C125.106 186.752 124.91 186.637 124.672 186.558C124.434 186.479 124.151 186.439 123.825 186.439H122.495V189.897H123.825ZM123.825 184.843C124.52 184.843 125.12 184.925 125.624 185.088C126.132 185.251 126.55 185.48 126.877 185.774C127.203 186.063 127.444 186.409 127.598 186.81C127.756 187.211 127.836 187.648 127.836 188.119C127.836 188.618 127.754 189.076 127.591 189.491C127.427 189.906 127.18 190.263 126.849 190.562C126.517 190.861 126.1 191.094 125.596 191.262C125.092 191.425 124.501 191.507 123.825 191.507H122.495V195H120.395V184.843H123.825ZM130.878 186.488V189.099H134.266V190.688H130.878V193.355H135.232V195H128.764V184.843H135.232V186.488H130.878ZM143.486 185.613C143.486 185.72 143.467 185.83 143.43 185.942C143.397 186.049 143.348 186.15 143.283 186.243L138.271 193.355H143.346V195H135.576V194.181C135.576 194.083 135.592 193.987 135.625 193.894C135.658 193.796 135.704 193.707 135.765 193.628L140.791 186.488H135.933V184.843H143.486V185.613Z" fill="white"/>
<path d="M213.077 190.035C213.077 190.921 212.981 191.691 212.79 192.345C212.599 192.998 212.335 193.539 211.999 193.969C211.663 194.393 211.264 194.711 210.802 194.921C210.345 195.126 209.85 195.229 209.318 195.229C208.786 195.229 208.291 195.126 207.834 194.921C207.377 194.711 206.982 194.393 206.651 193.969C206.32 193.539 206.058 192.998 205.867 192.345C205.68 191.691 205.587 190.921 205.587 190.035C205.587 189.148 205.68 188.38 205.867 187.732C206.058 187.078 206.32 186.539 206.651 186.115C206.982 185.685 207.377 185.368 207.834 185.163C208.291 184.953 208.786 184.848 209.318 184.848C209.85 184.848 210.345 184.953 210.802 185.163C211.264 185.368 211.663 185.685 211.999 186.115C212.335 186.539 212.599 187.078 212.79 187.732C212.981 188.38 213.077 189.148 213.077 190.035ZM211.082 190.035C211.082 189.316 211.031 188.723 210.928 188.257C210.83 187.79 210.699 187.421 210.536 187.151C210.373 186.88 210.184 186.691 209.969 186.584C209.759 186.476 209.542 186.423 209.318 186.423C209.094 186.423 208.877 186.476 208.667 186.584C208.462 186.691 208.277 186.88 208.114 187.151C207.955 187.421 207.827 187.79 207.729 188.257C207.631 188.723 207.582 189.316 207.582 190.035C207.582 190.758 207.631 191.353 207.729 191.82C207.827 192.286 207.955 192.655 208.114 192.926C208.277 193.196 208.462 193.385 208.667 193.493C208.877 193.6 209.094 193.654 209.318 193.654C209.542 193.654 209.759 193.6 209.969 193.493C210.184 193.385 210.373 193.196 210.536 192.926C210.699 192.655 210.83 192.286 210.928 191.82C211.031 191.353 211.082 190.758 211.082 190.035ZM215.435 188.033C215.435 188.569 215.566 188.978 215.827 189.258C216.093 189.538 216.48 189.678 216.989 189.678C217.246 189.678 217.474 189.638 217.675 189.559C217.88 189.475 218.051 189.36 218.186 189.216C218.321 189.071 218.424 188.898 218.494 188.698C218.569 188.497 218.606 188.278 218.606 188.04C218.606 187.774 218.566 187.54 218.487 187.34C218.408 187.134 218.296 186.962 218.151 186.822C218.011 186.682 217.843 186.577 217.647 186.507C217.451 186.432 217.234 186.395 216.996 186.395C216.753 186.395 216.536 186.437 216.345 186.521C216.154 186.6 215.99 186.714 215.855 186.864C215.72 187.008 215.615 187.181 215.54 187.382C215.47 187.582 215.435 187.799 215.435 188.033ZM217.472 191.218C217.542 191.129 217.61 191.043 217.675 190.959C217.74 190.875 217.806 190.791 217.871 190.707C217.647 190.837 217.402 190.938 217.136 191.008C216.875 191.073 216.597 191.106 216.303 191.106C215.962 191.106 215.624 191.045 215.288 190.924C214.957 190.802 214.658 190.62 214.392 190.378C214.126 190.135 213.911 189.832 213.748 189.468C213.585 189.099 213.503 188.667 213.503 188.173C213.503 187.72 213.587 187.293 213.755 186.892C213.923 186.486 214.161 186.133 214.469 185.835C214.777 185.531 215.146 185.291 215.575 185.114C216.009 184.936 216.49 184.848 217.017 184.848C217.549 184.848 218.027 184.932 218.452 185.1C218.877 185.263 219.236 185.494 219.53 185.793C219.824 186.091 220.05 186.448 220.209 186.864C220.368 187.274 220.447 187.727 220.447 188.222C220.447 188.544 220.421 188.849 220.37 189.139C220.319 189.428 220.244 189.703 220.146 189.965C220.048 190.226 219.929 190.48 219.789 190.728C219.654 190.975 219.5 191.218 219.327 191.456L217.066 194.683C216.973 194.804 216.837 194.907 216.66 194.991C216.487 195.075 216.289 195.117 216.065 195.117H214.287L217.472 191.218ZM222.917 195.089C222.829 195.322 222.686 195.497 222.49 195.614C222.299 195.735 222.103 195.796 221.902 195.796H221.083L225.122 185.345C225.202 185.135 225.328 184.971 225.5 184.855C225.673 184.738 225.871 184.68 226.095 184.68H226.921L222.917 195.089ZM233.747 193.346C233.957 193.346 234.12 193.404 234.237 193.521C234.358 193.637 234.419 193.791 234.419 193.983V195.117H227.377V194.487C227.377 194.365 227.402 194.235 227.454 194.095C227.505 193.95 227.591 193.819 227.713 193.703L230.723 190.686C230.979 190.429 231.206 190.184 231.402 189.951C231.598 189.713 231.761 189.482 231.892 189.258C232.022 189.029 232.12 188.798 232.186 188.565C232.251 188.331 232.284 188.086 232.284 187.83C232.284 187.377 232.167 187.034 231.934 186.801C231.7 186.563 231.371 186.444 230.947 186.444C230.76 186.444 230.587 186.472 230.429 186.528C230.275 186.579 230.135 186.651 230.009 186.745C229.887 186.838 229.782 186.948 229.694 187.074C229.605 187.2 229.54 187.337 229.498 187.487C229.414 187.72 229.299 187.876 229.155 187.956C229.015 188.03 228.814 188.047 228.553 188.005L227.531 187.823C227.605 187.328 227.745 186.894 227.951 186.521C228.156 186.147 228.413 185.837 228.721 185.59C229.029 185.342 229.381 185.158 229.778 185.037C230.174 184.911 230.601 184.848 231.059 184.848C231.539 184.848 231.976 184.92 232.368 185.065C232.764 185.205 233.103 185.403 233.383 185.66C233.663 185.912 233.88 186.217 234.034 186.577C234.188 186.936 234.265 187.333 234.265 187.767C234.265 188.14 234.211 188.485 234.104 188.803C233.996 189.12 233.849 189.423 233.663 189.713C233.481 189.997 233.268 190.275 233.026 190.546C232.783 190.816 232.526 191.089 232.256 191.365L230.1 193.57C230.338 193.5 230.573 193.446 230.807 193.409C231.04 193.367 231.259 193.346 231.465 193.346H233.747ZM235.3 187.823C235.375 187.328 235.515 186.894 235.72 186.521C235.925 186.147 236.182 185.837 236.49 185.59C236.798 185.342 237.148 185.158 237.54 185.037C237.937 184.911 238.364 184.848 238.821 184.848C239.306 184.848 239.74 184.918 240.123 185.058C240.51 185.193 240.837 185.38 241.103 185.618C241.369 185.856 241.572 186.133 241.712 186.451C241.857 186.768 241.929 187.109 241.929 187.473C241.929 187.795 241.894 188.079 241.824 188.327C241.759 188.569 241.658 188.782 241.523 188.964C241.392 189.146 241.229 189.3 241.033 189.426C240.842 189.552 240.62 189.657 240.368 189.741C241.535 190.123 242.118 190.9 242.118 192.072C242.118 192.59 242.022 193.047 241.831 193.444C241.64 193.836 241.383 194.165 241.061 194.431C240.739 194.697 240.363 194.897 239.934 195.033C239.509 195.163 239.064 195.229 238.597 195.229C238.102 195.229 237.666 195.173 237.288 195.061C236.91 194.949 236.576 194.781 236.287 194.557C236.002 194.333 235.757 194.053 235.552 193.717C235.347 193.376 235.167 192.979 235.013 192.527L235.867 192.177C236.091 192.083 236.299 192.058 236.49 192.1C236.686 192.142 236.826 192.244 236.91 192.408C237.003 192.585 237.101 192.748 237.204 192.898C237.311 193.047 237.43 193.178 237.561 193.29C237.692 193.397 237.839 193.481 238.002 193.542C238.17 193.602 238.361 193.633 238.576 193.633C238.847 193.633 239.082 193.588 239.283 193.5C239.484 193.411 239.652 193.297 239.787 193.157C239.922 193.012 240.023 192.851 240.088 192.674C240.158 192.492 240.193 192.312 240.193 192.135C240.193 191.901 240.172 191.691 240.13 191.505C240.088 191.313 239.99 191.152 239.836 191.022C239.687 190.886 239.463 190.784 239.164 190.714C238.87 190.639 238.469 190.602 237.96 190.602V189.244C238.385 189.244 238.732 189.209 239.003 189.139C239.274 189.069 239.486 188.971 239.64 188.845C239.794 188.719 239.899 188.567 239.955 188.39C240.016 188.212 240.046 188.019 240.046 187.809C240.046 187.365 239.929 187.027 239.696 186.794C239.467 186.56 239.141 186.444 238.716 186.444C238.529 186.444 238.357 186.472 238.198 186.528C238.044 186.579 237.904 186.651 237.778 186.745C237.657 186.838 237.552 186.948 237.463 187.074C237.374 187.2 237.309 187.337 237.267 187.487C237.178 187.72 237.064 187.876 236.924 187.956C236.784 188.03 236.581 188.047 236.315 188.005L235.3 187.823Z" fill="white"/>
</g>
<defs>
<filter id="filter0_d_803_2363" x="0" y="0" width="393" height="245.937" filterUnits="userSpaceOnUse" color-interpolation-filters="sRGB">
<feFlood flood-opacity="0" result="BackgroundImageFix"/>
<feColorMatrix in="SourceAlpha" type="matrix" values="0 0 0 0 0 0 0 0 0 0 0 0 0 0 0 0 0 0 127 0" result="hardAlpha"/>
<feOffset dy="1"/>
<feGaussianBlur stdDeviation="12.5"/>
<feColorMatrix type="matrix" values="0 0 0 0 0 0 0 0 0 0 0 0 0 0 0 0 0 0 0.34 0"/>
<feBlend mode="normal" in2="BackgroundImageFix" result="effect1_dropShadow_803_2363"/>
<feBlend mode="normal" in="SourceGraphic" in2="effect1_dropShadow_803_2363" result="shape"/>
</filter>
<filter id="filter1_d_803_2363" x="0" y="0" width="394" height="245.937" filterUnits="userSpaceOnUse" color-interpolation-filters="sRGB">
<feFlood flood-opacity="0" result="BackgroundImageFix"/>
<feColorMatrix in="SourceAlpha" type="matrix" values="0 0 0 0 0 0 0 0 0 0 0 0 0 0 0 0 0 0 127 0" result="hardAlpha"/>
<feOffset dy="1"/>
<feGaussianBlur stdDeviation="12.5"/>
<feColorMatrix type="matrix" values="0 0 0 0 0 0 0 0 0 0 0 0 0 0 0 0 0 0 0.08 0"/>
<feBlend mode="normal" in2="BackgroundImageFix" result="effect1_dropShadow_803_2363"/>
<feBlend mode="normal" in="SourceGraphic" in2="effect1_dropShadow_803_2363" result="shape"/>
</filter>
<linearGradient id="paint0_linear_803_2363" x1="128.5" y1="217.669" x2="308.918" y2="91.9982" gradientUnits="userSpaceOnUse">
<stop stop-color="white"/>
<stop offset="1" stop-color="white" stop-opacity="0"/>
</linearGradient>
<linearGradient id="paint1_linear_803_2363" x1="335.5" y1="-58.5474" x2="335.5" y2="160.067" gradientUnits="userSpaceOnUse">
<stop stop-color="white"/>
<stop offset="1" stop-color="white" stop-opacity="0"/>
</linearGradient>
<clipPath id="clip0_803_2363">
<rect width="32" height="22.6779" fill="white" transform="translate(312 168.231)"/>
</clipPath>
</defs>
</svg>
